<?xml version="1.0" encoding="UTF-8"?><svg id="Layer_2" xmlns="http://www.w3.org/2000/svg" viewBox="0 0 345.66 256.16"><defs><style>.cls-1{fill:#e61f26;}.cls-2{fill:#fefefe;}.cls-3{fill:#c2282a;}.cls-4{fill:#cfcdce;}.cls-5{fill:#964a4b;}</style></defs><g id="Layer_1-2"><g id="r4tYzw"><g><path class="cls-1" d="M10.41,137.43c.75-2.67,1.49-5.33,2.24-8,1.82-.56,3.09-2.06,5.38-2.03,13.48,.2,26.97,.16,40.46,.05,2.89-.02,3.81,.6,2.93,3.65-4.01,13.83-7.85,27.71-11.71,41.58-.5,1.79-1.29,2.81-3.41,2.8-13.98-.07-27.97-.05-41.96-.03-2.48,0-3.16-.77-2.39-3.34,2.41-8.09,4.76-16.21,6.7-24.42,.79-3.35,3.3-6.5,1.76-10.27Z"/><path class="cls-4" d="M73.43,110.3C99.03,57.15,163.85,17.37,235.12,31.13c-2.8,3.01-4.8,5-9.74,4.75-26.39-1.34-51.46,3.86-74.83,16.72-13.4,7.38-25.14,16.69-35.65,27.73-6.68,7.01-12.61,14.56-17.48,22.92-3.5,6-8.16,8.34-15.04,6.95-2.83-.57-5.52-.67-8.95,.1Z"/><path class="cls-1" d="M171.34,16.3c.47,.75,.95,1.51,1.42,2.26,.59,1.29,1.37,2.2-1.23,2.26-7.9,.18-15.7,2.15-22.89,4.83-11.1,4.13-22.5,7.89-32.62,14.39-2.45,1.58-4.95,2.98-6.64,5.44,0,0-.16,.08-.16,.08-3.07-1.04-4.49,1.38-6.46,2.9-8.21,6.32-6.49,7.57-15.38,1.34-3.89-2.73-8.12-5.03-12.39-7.13-3.02-1.48-3.1-2.4-.42-4.35,2.67-1.95,5.39-3.83,8.07-5.77C105.28,16.11,130.9,7.28,158.19,2.61c3.23-.55,5.7,.22,7.14,3.74,1.46,3.58,2.84,7.34,6.01,9.95Z"/><path class="cls-3" d="M42.78,68.75c4.93-6.95,10.85-13.03,16.8-19.09,1.88-1.91,3.36-1.93,5.6-.59,9.14,5.46,18.42,10.69,27.59,16.1,1.18,.69,3.78,.94,2.11,3.42-1.4,2.07-2.83,.32-3.73-.45-4.43-3.77-7.48-2.36-11.08,1.62-7.63,8.42-14.57,17.3-20.83,26.75-4.8,3.07-6.38,8.33-7.91,13.17-.8,2.52-1.41,3.07-3.67,3.04-7.82-.07-15.64-.16-23.46,.02-4.09,.09-4.44-1.48-3.09-4.81,3.12-7.7,7.28-14.85,11.16-22.16,3.14-5.91,8.24-10.6,10.51-17.03Z"/><path class="cls-1" d="M46.39,190.4c-.16-.31-.15-.62,.04-.92,3.03-.85,2.35-3.78,2.83-5.74,1.01-4.13,3.09-5.53,7.34-5.36,8.29,.33,16.6,.08,24.9,.11,2.29,0,4.68-.45,6.74,1.07-2.7,10.04-4.53,20.35-8.9,29.89-1.63,1.68-.84,5.23-4.93,5.1-9.98-.3-19.98-.13-29.97-.08-2.86,.01-3.43-1.29-2.68-3.8,1.62-5.39,3.14-10.82,4.71-16.22,.39-1.36,1.59-2.73-.07-4.05Z"/><path class="cls-1" d="M75.22,230.29c.51-2.65,1.02-5.3,1.53-7.94,2.52-.25,1.95-4.07,5.11-4.01,10.31,.21,20.62,.07,30.93,.09,1.9,0,2.67,.7,2.07,2.8-2.6,9.19-5.19,18.39-7.53,27.64-.98,3.88-2.52,5.85-7.06,5.63-8.63-.42-17.3-.34-25.93-.03-4.29,.16-4.89-1.13-3.92-5.02,1.6-6.39,4.82-12.38,4.81-19.17Z"/><path class="cls-1" d="M196.27,.66c15.42,.06,47.18,8.09,56.83,14.47-4.35,3.96-8.68,7.85-12.93,11.81-1.81,1.68-3.85,.8-3.61-.83,.47-3.22-1.74-2.78-3.21-3.09-13.58-2.86-27.33-4.38-41.17-3.36-5.4,.4-8.94-.62-10.74-5.94-.53-1.55-1.47-2.96-2.23-4.43,.14-1.19-.24-2.19-.85-3.24-2.59-4.48-2.54-4.32,2.83-4.57,5.03-.24,10.15,1.12,15.08-.82Z"/><path class="cls-1" d="M91.54,169.39c1.91-6.88,3.82-13.76,5.73-20.64,.04,.16,.05,.33,.11,.48,.07,.14,.19,.26,.3,.39,1.22-2.6,3.62-1.96,5.77-2.15,6.88-.64,13.73,1.06,20.63,.15,2.25-.3,2.17,1.22,1.71,2.95-1.95,7.32-3.79,14.66-5.68,22-.6,2.33-2.18,2.98-4.47,2.92-5.3-.12-10.61-.04-15.91-.04q-7.24,0-8.18-6.06Z"/><path class="cls-3" d="M75.22,230.29c0,6.79-3.21,12.78-4.81,19.17-.97,3.88-.37,5.17,3.92,5.02,8.64-.32,17.31-.39,25.93,.03,4.53,.22,6.07-1.75,7.06-5.63,2.34-9.26,4.93-18.45,7.53-27.64,.6-2.11-.17-2.8-2.07-2.8-10.31-.01-20.62,.12-30.93-.09-3.16-.06-2.59,3.76-5.11,4.01q1.31-6.1-5.2-6.11c-9.47,0-18.94-.14-28.41,.05-3.3,.07-4.02-.75-3.04-3.91,2.25-7.28,4.21-14.65,6.29-21.98,1.66,1.32,.46,2.69,.07,4.05-1.57,5.41-3.09,10.83-4.71,16.22-.75,2.51-.18,3.81,2.68,3.8,9.99-.05,19.99-.22,29.97,.08,4.09,.12,3.3-3.43,4.93-5.1,1.46,2.27-1.96,5.05-.14,6.43,2.18,1.64,5.45,.56,8.24,.59,8.82,.08,17.65,.09,26.47-.02,2.59-.03,3.59,.43,2.75,3.34-3.18,11.01-6.18,22.07-9.15,33.14-.52,1.95-1.44,2.73-3.45,2.72-11.32-.06-22.64-.03-33.97-.04-1.18,0-2.58,.1-2.04-1.76,2.26-7.89,3.48-16.1,7.18-23.56Z"/><path class="cls-3" d="M88.23,179.56c-2.06-1.52-4.45-1.06-6.74-1.07-8.3-.03-16.61,.22-24.9-.11-4.24-.17-6.33,1.23-7.34,5.36-.48,1.96,.2,4.89-2.83,5.74,.83-2.84,1.57-5.71,2.5-8.51,1.02-3.06,.09-4.08-3.17-4.05-13.77,.13-27.54-.15-41.3,.15-4.71,.1-5.11-1.2-3.86-5.29,3.48-11.39,6.56-22.89,9.8-34.35,1.54,3.77-.97,6.92-1.76,10.27-1.94,8.21-4.29,16.33-6.7,24.42-.77,2.57-.09,3.35,2.39,3.34,13.99-.02,27.97-.05,41.96,.03,2.12,.01,2.91-1.01,3.41-2.8,3.87-13.87,7.7-27.75,11.71-41.58,.88-3.05-.04-3.68-2.93-3.65-13.48,.1-26.97,.14-40.46-.05-2.29-.03-3.56,1.47-5.38,2.03,.15-2.07,.87-3.17,3.35-3.15,14.79,.12,29.58,.13,44.37,0,3.31-.03,3.42,1.15,2.66,3.85-3.99,14.04-7.67,28.16-11.82,42.15-1.26,4.24-.28,5.08,3.85,4.98,9.97-.24,19.94-.12,29.91,.01,1.29,.02,4.32-1.46,3.28,2.29Z"/><path class="cls-3" d="M171.34,16.3c-3.17-2.61-4.55-6.37-6.01-9.95-1.44-3.52-3.91-4.29-7.14-3.74-27.29,4.66-52.91,13.5-75.56,29.93-2.67,1.94-5.39,3.82-8.07,5.77-2.68,1.96-2.59,2.87,.42,4.35,4.27,2.09,8.5,4.4,12.39,7.13,8.89,6.23,7.17,4.98,15.38-1.34,1.97-1.52,3.4-3.94,6.46-2.9-3.98,2.97-7.97,5.93-11.94,8.92-1.27,.96-2.34,1.4-3.99,.42-7.13-4.23-14.36-8.31-21.57-12.4-3.04-1.72-.81-2.78,.49-3.83,11.01-8.94,23.01-16.3,35.86-22.29,15.9-7.42,32.61-12.13,49.92-14.88,3.83-.61,6.74-.41,8.24,3.88,1.33,3.79,5.08,6.49,5.12,10.93Z"/><path class="cls-5" d="M42.78,68.75c-2.27,6.43-7.37,11.12-10.51,17.03-3.88,7.31-8.05,14.46-11.16,22.16-1.35,3.33-1,4.9,3.09,4.81,7.81-.18,15.64-.1,23.46-.02,2.26,.02,2.87-.52,3.67-3.04,1.54-4.84,3.11-10.1,7.91-13.17-1.85,3.33-3.64,6.7-5.57,9.98-1.64,2.77-2.05,4.69,2.26,4.18,.66-.08,1.33,0,1.99,.01,1.28,.01,2.36,.31,2.33,1.89-.04,1.58-1.17,1.8-2.42,1.8-4.66,0-9.31,.01-13.97,.01-7.82,0-15.63-.08-23.45,.05-2.69,.04-3.2-.84-2.21-3.19,6.41-15.2,13.98-29.72,24.58-42.49Z"/><path class="cls-4" d="M299.42,62c-12.08-7.89-23.53-14.44-36.21-18.51-2.99-.96-6.01-1.84-8.99-2.84-1.34-.45-3.91,.32-3.12-2.54,.6-2.16,2.03-2.49,4.26-1.79,9.55,3.01,18.64,7.04,27.23,12.12,4.7,2.78,9.12,6.02,13.68,9.03,1.24,.82,2.48,1.61,3.16,4.52Z"/><path class="cls-3" d="M91.54,169.39q.94,6.06,8.18,6.06c5.3,0,10.61-.08,15.91,.04,2.29,.05,3.87-.6,4.47-2.92,1.89-7.33,3.73-14.68,5.68-22,.46-1.73,.54-3.25-1.71-2.95-6.9,.92-13.75-.78-20.63-.15-2.15,.2-4.55-.45-5.77,2.15-.1-.13-.23-.25-.3-.39-.07-.15-.08-.32-.11-.48-.3-2.12,.98-2.52,2.69-2.52,8.64,.02,17.29,.05,25.93,0,2-.01,2.6,.49,1.99,2.59-2.5,8.6-4.93,17.22-7.17,25.89-.51,1.96-1.5,2.29-3.14,2.28-8.48-.04-16.96-.11-25.43-.06-2.25,.01-3.04-.63-2.12-2.87,.62-1.52,1.03-3.12,1.53-4.68Z"/><path class="cls-3" d="M109.38,45.47c1.68-2.46,4.18-3.86,6.64-5.44,10.13-6.5,21.52-10.26,32.62-14.39,7.19-2.68,15-4.65,22.89-4.83,2.6-.06,1.82-.98,1.23-2.26,2.49,1.37,3.19,4.05,4.6,6.21,.74,1.13,.05,1.83-.82,2.46-1.17,.84-1.98,.21-2.31-.81-2.09-6.47-6.78-4.12-10.95-3.22-19.3,4.18-37.09,12.04-53.89,22.27Z"/><path class="cls-1" d="M336.49,89.82c-.84-1.61-1.59-3.28-2.53-4.83-13.88-22.81-32.04-41.52-54.36-56.14-8.56-5.6-5.88-4.94-12.84,1.44-1.98,1.81-2.29,2.78,.57,4.09,28.65,13.16,51.38,33.24,68.96,59.28,3.12,5.45,6.25,10.89,9.37,16.34-2.2-7.18-4.79-14.12-9.17-20.2Z"/><path class="cls-3" d="M196.27,.66c-4.93,1.94-10.06,.58-15.08,.82-5.36,.25-5.42,.09-2.83,4.57,.61,1.06,.99,2.05,.85,3.24-1.72-2.76-3.43-5.52-5.59-8.98,8.02-.4,15.33-.53,22.65,.35Z"/><path class="cls-1" d="M251.81,27.72c3.5-3.25,6.62-7.02,9.4-10.97-4.26,2.09-7.19,6.02-10.58,9.12-14.11,12.97-28.3,25.86-42.27,38.98-3.97,3.73-7.52,7.37-13.62,4.86-.95-.39-2.3,.02-3.44,.23-9.76,1.85-14.09,9.62-12.18,21.81-.28,2.64-2.69,3.64-4.19,5.32-1.77,1.98-3.91,3.64-5.56,5.71-1.41,1.76-3.14,4.62-1.43,6.13,1.93,1.71,6.1,2.22,7.72,.11,3.68-4.77,7.4-7.32,11.45-8.67,4.38-1.45,3.41,2.54,11.29,.33,2.69-.95,4.11-1.89,7.01-4.1,4.7-4.44,5.95-10.38,3.37-17.28-.79-2.11-.87-3.45,.75-5.22,14.15-15.4,28.19-30.9,42.26-46.36Zm-58.09,64.1c-3.82-.29-6.09-2.49-6.34-6.38-.23-3.7,2.74-6.76,6.39-6.81,3.67-.05,6.6,2.89,6.6,6.62,0,3.67-3.06,6.84-6.65,6.57Z"/><path class="cls-2" d="M200.38,85.25c0,3.67-3.06,6.84-6.65,6.57-3.82-.29-6.09-2.49-6.34-6.38-.23-3.7,2.74-6.76,6.39-6.81,3.67-.05,6.6,2.89,6.6,6.62Z"/></g></g><g><path class="cls-1" d="M175.35,139.14c0-1.53,4-2.29,12-2.29s12,.76,12,2.29v52.61c0,7.79-2.69,14.16-8.07,19.08-5.38,4.93-12.81,7.39-22.28,7.39s-17.18-2.54-23.11-7.62c-5.93-5.08-8.9-11.94-8.9-20.58v-50.78c0-1.53,4-2.29,12-2.29s12,.76,12,2.29v51.69c0,1.53,.77,2.75,2.32,3.67,1.62,.92,3.32,1.38,5.09,1.38s3.37-.42,4.81-1.26c1.44-.84,2.16-2.1,2.16-3.78v-51.81Z"/><path class="cls-1" d="M280.29,214.56c0,1.6-3.47,2.41-10.39,2.41s-10.69-.57-11.28-1.72l-18.47-35.76v35.65c0,1.38-3.41,2.06-10.23,2.06s-10.23-.69-10.23-2.06v-76.68c0-1.15,2.91-1.72,8.73-1.72,2.28,0,4.96,.21,8.02,.63,3.06,.42,4.92,1.2,5.58,2.35l17.69,35.3v-35.99c0-1.45,3.43-2.18,10.28-2.18s10.28,.73,10.28,2.18v75.54Z"/><path class="cls-1" d="M309.7,197.37v-40.8h-7.85c-1.25,0-2.14-1.64-2.65-4.93-.22-1.6-.33-3.25-.33-4.93s.11-3.32,.33-4.93c.52-3.28,1.4-4.93,2.65-4.93h37.15c1.25,0,2.1,1.64,2.54,4.93,.29,1.6,.44,3.25,.44,4.93s-.15,3.32-.44,4.93c-.44,3.29-1.29,4.93-2.54,4.93h-7.41v40.8h7.74c1.25,0,2.14,1.64,2.65,4.93,.29,1.6,.44,3.25,.44,4.93s-.15,3.32-.44,4.93c-.52,3.29-1.4,4.93-2.65,4.93h-37.26c-1.25,0-2.1-1.64-2.54-4.93-.3-1.6-.44-3.25-.44-4.93s.15-3.32,.44-4.93c.44-3.28,1.29-4.93,2.54-4.93h7.63Z"/></g><g><path class="cls-4" d="M148.44,255.23c0,.41-1.26,.62-3.79,.62s-3.83-.19-3.83-.58v-25.19c0-.9,.49-1.35,1.47-1.35h7.61c6.99,0,10.48,2.64,10.48,7.92,0,1.6-.32,3.05-.96,4.35s-1.54,2.34-2.71,3.11l5.02,8.12c-.21,.62-.9,1.33-2.07,2.12-1.59,1.11-2.91,1.66-3.94,1.66s-1.81-.36-2.31-1.08l-3.75-8.46h-1.24v8.77Zm0-19.67v5.8h.2c2.52,0,3.79-1.02,3.79-3.05,0-.93-.25-1.62-.74-2.07-.49-.45-1.29-.68-2.41-.68h-.84Z"/><path class="cls-4" d="M195.03,255.85c-2.31,0-3.56-.36-3.75-1.08l-1.31-4.98h-6.34l-1.16,4.79c-.16,.8-1.43,1.2-3.83,1.2-1.27,0-2.22-.07-2.83-.21-.61-.14-.92-.25-.92-.33l7.05-26.16c0-.21,1.82-.31,5.46-.31s5.46,.1,5.46,.31l6.89,26.2c0,.18-.61,.32-1.83,.42-1.22,.1-2.19,.15-2.91,.15Zm-10.4-10.97h4.18l-1.79-8h-.24l-2.15,8Z"/><path class="cls-4" d="M230.87,229.17c1.47,.53,2.21,1.24,2.21,2.14s-.35,2.02-1.06,3.34c-.7,1.33-1.29,1.99-1.77,1.99-.13,0-.29-.07-.46-.21-.17-.14-.57-.3-1.2-.46-.62-.17-1.16-.25-1.61-.25-1.54,0-2.78,.53-3.73,1.58-.94,1.06-1.41,2.67-1.41,4.85s.48,3.79,1.45,4.85c.97,1.06,2.2,1.58,3.69,1.58,.61,0,1.3-.08,2.05-.25,.76-.17,1.3-.41,1.61-.71,.05-.05,.16-.08,.32-.08s.46,.29,.9,.87c.44,.58,.84,1.34,1.22,2.28,.37,.94,.56,1.67,.56,2.18,0,1-.8,1.8-2.39,2.4-1.59,.59-3.48,.89-5.66,.89-3.51,0-6.39-1.2-8.65-3.59-2.26-2.4-3.39-5.78-3.39-10.14s1.16-7.8,3.49-10.3c2.32-2.5,5.23-3.75,8.71-3.75,1.94,0,3.65,.26,5.12,.79Z"/><path class="cls-4" d="M251.29,249.13v-13.76h-2.83c-.45,0-.77-.55-.96-1.66-.08-.54-.12-1.09-.12-1.66s.04-1.12,.12-1.66c.19-1.11,.5-1.66,.96-1.66h13.39c.45,0,.76,.55,.92,1.66,.11,.54,.16,1.1,.16,1.66s-.05,1.12-.16,1.66c-.16,1.11-.47,1.66-.92,1.66h-2.67v13.76h2.79c.45,0,.77,.55,.96,1.66,.11,.54,.16,1.09,.16,1.66s-.05,1.12-.16,1.66c-.19,1.11-.5,1.66-.96,1.66h-13.43c-.45,0-.76-.55-.92-1.66-.11-.54-.16-1.09-.16-1.66s.05-1.12,.16-1.66c.16-1.11,.46-1.66,.92-1.66h2.75Z"/><path class="cls-4" d="M299.55,254.92c0,.54-1.25,.81-3.75,.81s-3.85-.19-4.06-.58l-6.65-12.06v12.02c0,.46-1.23,.7-3.69,.7s-3.69-.23-3.69-.7v-25.85c0-.39,1.05-.58,3.15-.58,.82,0,1.79,.07,2.89,.21,1.1,.14,1.77,.41,2.01,.79l6.38,11.9v-12.13c0-.49,1.24-.73,3.71-.73s3.71,.25,3.71,.73v25.46Z"/><path class="cls-4" d="M330.23,247.7l.08-5.25c0-.36,.38-.6,1.16-.71,.77-.12,1.41-.17,1.91-.17l1.55,.12c1.01,.16,1.51,.43,1.51,.81l-.16,12.09c-.53,.36-1.6,.71-3.21,1.06-1.61,.35-3.45,.52-5.52,.52-3.85,0-6.96-1.21-9.32-3.63-2.36-2.42-3.55-5.98-3.55-10.67,0-3.99,1.16-7.24,3.47-9.74,2.31-2.5,5.51-3.75,9.6-3.75,1.86,0,3.54,.17,5.04,.52,1.5,.35,2.53,.82,3.09,1.41,.03,.21,.04,.59,.04,1.16s-.2,1.37-.6,2.42c-.4,1.04-.85,1.82-1.35,2.34-.5,.52-.87,.77-1.1,.77s-.47-.1-.72-.29c-.25-.19-.75-.4-1.49-.62s-1.46-.33-2.15-.33c-1.65,0-2.98,.52-4,1.54-1.02,1.03-1.53,2.63-1.53,4.79s.52,3.81,1.57,4.93c1.05,1.12,2.26,1.68,3.63,1.68s2.05-.33,2.05-1Z"/></g></g></svg>